<svg id="logo-25" width="147" height="46" viewBox="0 0 147 46" fill="none" xmlns="http://www.w3.org/2000/svg"> <path fill-rule="evenodd" clip-rule="evenodd" d="M72.6756 7.40747C74.0634 6.01977 76.3134 6.01977 77.7012 7.40747C79.089 8.79527 79.089 11.0453 77.7012 12.4331L69.2403 20.894C66.8111 17.6384 67.075 13.0082 70.032 10.0512L72.6756 7.40747Z" class="ccompli1" fill="#4F9E91"></path> <path fill-rule="evenodd" clip-rule="evenodd" d="M84.771 26.4967C86.159 27.8844 86.159 30.1345 84.771 31.5222C83.384 32.91 81.1336 32.91 79.7458 31.5222L71.2849 23.0614C74.5405 20.6322 79.1707 20.896 82.1277 23.853L84.771 26.4967Z" class="ccustom" fill="#EBE1C5"></path> <path fill-rule="evenodd" clip-rule="evenodd" d="M65.6821 38.5924C64.2944 39.9802 62.0443 39.9802 60.6566 38.5924C59.2688 37.2046 59.2688 34.9546 60.6566 33.5668L69.1174 25.106C71.5466 28.3616 71.2828 32.9918 68.3258 35.9487L65.6821 38.5924Z" class="ccompli2" fill="#EBCC6E"></path> <path fill-rule="evenodd" clip-rule="evenodd" d="M53.5865 19.5032C52.1987 18.1154 52.1987 15.8654 53.5865 14.4776C54.9743 13.0898 57.2243 13.0898 58.6121 14.4776L67.073 22.9385C63.8174 25.3677 59.1871 25.1038 56.2302 22.1469L53.5865 19.5032Z" class="ccustom" fill="#ED834E"></path> <path fill-rule="evenodd" clip-rule="evenodd" d="M70.7849 37.5562C72.8312 35.281 73.7823 32.3697 73.638 29.5033L77.7014 33.5667C77.7115 33.5768 77.7217 33.5869 77.7319 33.597V36.498C77.7319 38.4606 76.1409 40.0516 74.1783 40.0516C72.5842 40.0516 71.2353 39.002 70.7849 37.5562Z" class="ccustom" fill="#ED834E"></path> <path fill-rule="evenodd" clip-rule="evenodd" d="M54.6226 24.6058C56.8977 26.6522 59.809 27.6033 62.6754 27.459L58.6121 31.5224C58.6019 31.5325 58.5918 31.5427 58.5818 31.5528H55.6808C53.7182 31.5529 52.1272 29.9618 52.1272 27.9992C52.1272 26.4052 53.1768 25.0562 54.6226 24.6058Z" class="ccompli1" fill="#4F9E91"></path> <path fill-rule="evenodd" clip-rule="evenodd" d="M83.735 21.3942C81.4601 19.3478 78.5488 18.3967 75.6824 18.5409L79.7457 14.4776C79.7559 14.4675 79.7659 14.4573 79.776 14.4471H82.6771C84.64 14.4471 86.231 16.0382 86.231 18.0008C86.231 19.5949 85.181 20.9438 83.735 21.3942Z" class="ccompli2" fill="#EBCC6E"></path> <path fill-rule="evenodd" clip-rule="evenodd" d="M67.573 8.44368C65.5266 10.7188 64.5756 13.6301 64.7198 16.4966L60.6565 12.4332C60.6463 12.4231 60.6362 12.413 60.626 12.4029V9.50188C60.626 7.53928 62.217 5.94818 64.1796 5.94818C65.7737 5.94818 67.1226 6.99788 67.573 8.44368Z" class="ccustom" fill="#EBE1C5"></path> <path fill-rule="evenodd" clip-rule="evenodd" d="M64.1798 3.05701C60.6204 3.05701 57.7349 5.94251 57.7349 9.50191V10.7554C55.5935 10.1959 53.2203 10.7551 51.5422 12.4332C49.0253 14.9501 49.0253 19.0308 51.5422 21.5477L52.4285 22.434C50.5187 23.5526 49.2361 25.6261 49.2361 27.9992C49.2361 31.5586 52.1216 34.4441 55.681 34.4441H56.9344C56.3749 36.5855 56.9341 38.9587 58.6122 40.6367C61.1291 43.1536 65.2098 43.1536 67.7267 40.6367L70.3703 37.9931C72.7024 35.661 73.7916 32.5566 73.6379 29.5032L77.7014 33.5666C80.2183 36.0835 84.2991 36.0835 86.8161 33.5666C89.3331 31.0497 89.3331 26.969 86.8161 24.4522L85.9301 23.566C87.8391 22.4474 89.1221 20.3739 89.1221 18.0008C89.1221 14.4414 86.2361 11.5559 82.6771 11.5559H81.4236C81.9832 9.41441 81.4239 7.04121 79.7458 5.36311C77.229 2.84621 73.1483 2.84621 70.6314 5.36311L67.9877 8.00681C65.6556 10.3389 64.5664 13.4432 64.7201 16.4966L60.6567 12.4332C60.6465 12.4231 60.6364 12.413 60.6262 12.4029V9.50191C60.6262 7.53931 62.2172 5.94831 64.1798 5.94831C65.7739 5.94831 67.1228 6.99791 67.5732 8.44371C67.7067 8.29531 67.8448 8.14961 67.9876 8.00681L69.745 6.24941C68.6264 4.33961 66.5529 3.05701 64.1798 3.05701ZM79.7761 14.4472C79.766 14.4573 79.756 14.4675 79.7458 14.4776L75.6825 18.5409C78.549 18.3967 81.4602 19.3477 83.7351 21.3942C85.1811 20.9438 86.2311 19.5948 86.2311 18.0008C86.2311 16.0382 84.6401 14.4472 82.6771 14.4472H79.7761ZM58.5818 31.5528C58.5919 31.5426 58.602 31.5324 58.6122 31.5223L62.6755 27.4589C59.8091 27.6032 56.8979 26.6521 54.6228 24.6058C53.177 25.0562 52.1273 26.4051 52.1273 27.9992C52.1273 29.9618 53.7184 31.5528 55.681 31.5528H58.5818ZM54.512 24.5048C54.4017 24.4029 54.293 24.2984 54.1859 24.1913V24.1914C54.293 24.2985 54.4017 24.4029 54.512 24.5048ZM74.1783 42.943C71.8051 42.943 69.7316 41.6603 68.613 39.7505L70.3703 37.9931C70.5132 37.8503 70.6513 37.7046 70.7848 37.5562C71.2352 39.002 72.5841 40.0517 74.1783 40.0517C76.1409 40.0517 77.7319 38.4607 77.7319 36.4981V33.5971C78.5647 34.419 79.5657 34.9682 80.6232 35.2445V36.4981C80.6232 40.0575 77.7377 42.943 74.1783 42.943ZM77.7014 7.40751C76.3136 6.01981 74.0636 6.01981 72.6758 7.40751L70.0321 10.0512C67.0752 13.0082 66.8113 17.6384 69.2405 20.894L77.7014 12.4331C79.0892 11.0453 79.0892 8.79531 77.7014 7.40751ZM84.7711 31.5222C86.1591 30.1344 86.1591 27.8844 84.7711 26.4966L82.1277 23.8529C79.1708 20.896 74.5405 20.6321 71.2849 23.0613L79.7458 31.5222C81.1336 32.91 83.3841 32.91 84.7711 31.5222ZM65.6822 38.5923C64.2944 39.9801 62.0444 39.9801 60.6566 38.5923C59.2689 37.2045 59.2689 34.9545 60.6566 33.5667L69.1175 25.1058C71.5467 28.3614 71.2828 32.9917 68.3259 35.9486L65.6822 38.5923ZM53.5866 14.4776C52.1989 15.8654 52.1989 18.1154 53.5866 19.5032L56.2303 22.1469C59.1873 25.1038 63.8175 25.3677 67.0731 22.9385L58.6122 14.4776C57.2244 13.0899 54.9744 13.0899 53.5866 14.4776Z" class="cneutral" fill="#3D3A2C"></path></svg>